<svg width="32" height="32" viewBox="0 0 32 32" fill="none" xmlns="http://www.w3.org/2000/svg">
<path d="M13.4922 27.4382H18.6589C18.6589 28.859 17.4964 30.0215 16.0756 30.0215C14.6547 30.0215 13.4922 28.859 13.4922 27.4382ZM27.7006 24.8548V26.1465H4.45056V24.8548L7.03389 22.2715V14.5215C7.03389 10.5173 9.61723 7.02982 13.4922 5.86732V5.47982C13.4922 4.05898 14.6547 2.89648 16.0756 2.89648C17.4964 2.89648 18.6589 4.05898 18.6589 5.47982V5.86732C22.5339 7.02982 25.1172 10.5173 25.1172 14.5215V22.2715L27.7006 24.8548ZM22.5339 14.5215C22.5339 10.9048 19.6922 8.06315 16.0756 8.06315C12.4589 8.06315 9.61723 10.9048 9.61723 14.5215V23.5632H22.5339V14.5215Z" fill="black"/>
</svg>
