<svg width="47" height="47" viewBox="0 0 47 47" fill="none" xmlns="http://www.w3.org/2000/svg">
<path d="M23.557 4.82031C21.04 4.82031 18.5477 5.31607 16.2223 6.27929C13.8969 7.2425 11.784 8.65431 10.0042 10.4341C6.40972 14.0285 4.39038 18.9037 4.39038 23.987C4.39038 29.0703 6.40972 33.9454 10.0042 37.5399C11.784 39.3196 13.8969 40.7315 16.2223 41.6947C18.5477 42.6579 21.04 43.1536 23.557 43.1536C28.6404 43.1536 33.5155 41.1343 37.1099 37.5399C40.7044 33.9454 42.7237 29.0703 42.7237 23.987C42.7237 21.47 42.2279 18.9776 41.2647 16.6522C40.3015 14.3268 38.8897 12.2139 37.1099 10.4341C35.3301 8.65431 33.2172 7.2425 30.8918 6.27929C28.5664 5.31607 26.074 4.82031 23.557 4.82031V4.82031ZM14.1079 36.0236C14.932 34.2986 19.9537 32.612 23.557 32.612C27.1604 32.612 32.182 34.2986 33.0062 36.0236C30.3995 38.0936 27.122 39.3203 23.557 39.3203C19.992 39.3203 16.7145 38.0936 14.1079 36.0236ZM35.747 33.2445C33.0062 29.9095 26.3554 28.7786 23.557 28.7786C20.7587 28.7786 14.1079 29.9095 11.367 33.2445C9.41205 30.6953 8.22371 27.4753 8.22371 23.987C8.22371 15.5345 15.1045 8.65365 23.557 8.65365C32.0095 8.65365 38.8904 15.5345 38.8904 23.987C38.8904 27.4753 37.702 30.6953 35.747 33.2445ZM23.557 12.487C19.8387 12.487 16.8487 15.477 16.8487 19.1953C16.8487 22.9136 19.8387 25.9036 23.557 25.9036C27.2754 25.9036 30.2654 22.9136 30.2654 19.1953C30.2654 15.477 27.2754 12.487 23.557 12.487ZM23.557 22.0703C22.7945 22.0703 22.0633 21.7674 21.5241 21.2282C20.9849 20.6891 20.682 19.9578 20.682 19.1953C20.682 18.4328 20.9849 17.7015 21.5241 17.1624C22.0633 16.6232 22.7945 16.3203 23.557 16.3203C24.3195 16.3203 25.0508 16.6232 25.59 17.1624C26.1291 17.7015 26.432 18.4328 26.432 19.1953C26.432 19.9578 26.1291 20.6891 25.59 21.2282C25.0508 21.7674 24.3195 22.0703 23.557 22.0703Z" fill="black"/>
</svg>
