<svg xmlns="http://www.w3.org/2000/svg" width="24" height="24" viewBox="0 0 24 24" fill="none">
  <path d="M22.0104 15.5633L22.0111 15.566L22.0111 15.566C22.1777 16.1909 21.8187 16.8696 21.1852 16.992L15.248 18.5568C15.3218 19.7232 14.5692 20.8124 13.4006 21.1165C12.2324 21.4433 11.0183 20.8703 10.5101 19.8297L9.53069 20.0968L9.52965 20.0971C9.32213 20.1488 9.10645 20.0454 9.05211 19.8294C9.05207 19.8292 9.05202 19.829 9.05198 19.8289L5.05601 5.11528L3.15698 5.59013L3.14485 5.54162L3.15698 5.59013C2.6678 5.71244 2.131 5.41957 1.98446 4.90648M22.0104 15.5633L2.03254 4.89275M22.0104 15.5633L22.0103 15.5631L21.5702 13.942C21.5702 13.9418 21.5701 13.9416 21.5701 13.9414C21.5157 13.7254 21.3001 13.622 21.0926 13.6738L21.0921 13.6739L19.4482 14.1018L17.6074 7.26782C17.6074 7.26768 17.6073 7.26754 17.6073 7.2674C17.553 7.05134 17.3373 6.94784 17.1297 6.99963L17.1289 6.99985L13.5387 7.96027L12.5556 4.3247C12.5555 4.32454 12.5555 4.32438 12.5554 4.32423C12.5011 4.1082 12.2854 4.00472 12.0779 4.05651L12.0773 4.05666L7.44427 5.27226M22.0104 15.5633L7.44427 5.27226M1.98446 4.90648L2.03254 4.89275M1.98446 4.90648C1.98446 4.90648 1.98446 4.90649 1.98446 4.90649L2.03254 4.89275M1.98446 4.90648C1.83714 4.39078 2.15705 3.87821 2.66768 3.73236L2.66935 3.73189L2.66935 3.73192L6.39957 2.80524M2.03254 4.89275C1.89353 4.40618 2.19467 3.91946 2.68141 3.78044L6.41243 2.85356M6.39957 2.80524C6.39929 2.80532 6.399 2.8054 6.39871 2.80548L6.41243 2.85356M6.39957 2.80524L6.40037 2.80504L6.41243 2.85356M6.39957 2.80524C6.5873 2.75222 6.80111 2.85936 6.85476 3.07282L6.85466 3.07243L6.80636 3.08537M6.41243 2.85356C6.57456 2.80733 6.75997 2.89996 6.80636 3.08537M6.80636 3.08537L6.85487 3.07323M6.80636 3.08537L7.40885 5.33325L6.85487 3.07323M6.85487 3.07323L7.44427 5.27226M6.85487 3.07323L7.44427 5.27226M5.69566 4.57863L5.69574 4.57861L5.69484 4.57593C5.643 4.42057 5.48752 4.28683 5.32299 4.28683H5.25348V4.28535L5.24158 4.28827L2.97057 4.84449L2.97056 4.84445L2.96874 4.84497C2.90054 4.86444 2.84767 4.85279 2.80897 4.82734C2.76911 4.80114 2.73999 4.75741 2.72666 4.70655C2.69985 4.60417 2.7392 4.49141 2.85698 4.45447L6.21463 3.60938L9.86301 17.0483C9.86306 17.0485 9.8631 17.0487 9.86314 17.0488C9.91748 17.2648 10.1332 17.3683 10.3407 17.3165L10.3411 17.3164L10.8074 17.1955C10.3554 17.7407 10.1774 18.4624 10.2723 19.1303L9.69214 19.2704L5.69566 4.57863ZM11.095 19.2925L11.0949 19.2924C10.802 18.3462 11.3424 17.3784 12.2881 17.1308L12.2885 17.1306C13.2799 16.8603 14.2481 17.5142 14.4278 18.4132L14.4278 18.4132L14.428 18.4141C14.6302 19.3354 14.0469 20.1691 13.1887 20.4177C12.2872 20.6655 11.3648 20.1695 11.095 19.2925ZM20.9756 16.2927L15.0638 17.8568C14.8151 17.2186 14.2796 16.7014 13.6326 16.4619C14.2563 16.2965 14.9239 16.1196 15.612 15.9374C17.3837 15.4682 19.2906 14.9631 20.9303 14.5249L21.2649 15.7743L21.2649 15.7745C21.3274 16.0038 21.2031 16.23 20.9766 16.2924C20.9764 16.2924 20.9762 16.2925 20.9759 16.2926L20.9756 16.2927ZM18.7257 14.3126L10.5029 16.4885L8.74467 10.0267L16.9675 7.85081L18.7257 14.3126ZM7.65554 6.01763L11.9155 4.88463L12.7933 8.14825L8.53319 9.28125L7.65554 6.01763Z" fill="#718096" stroke="#718096" stroke-width="0.1"/>
</svg>