<svg width="22" height="22" viewBox="0 0 22 22" fill="none" xmlns="http://www.w3.org/2000/svg">
<path d="M17.8752 3.66665H15.1252V2.29165C15.1252 2.17009 15.0769 2.05351 14.9909 1.96756C14.905 1.8816 14.7884 1.83331 14.6668 1.83331C14.5453 1.83331 14.4287 1.8816 14.3427 1.96756C14.2568 2.05351 14.2085 2.17009 14.2085 2.29165V3.66665H7.79183V2.29165C7.79183 2.17009 7.74354 2.05351 7.65759 1.96756C7.57163 1.8816 7.45505 1.83331 7.3335 1.83331C7.21194 1.83331 7.09536 1.8816 7.00941 1.96756C6.92345 2.05351 6.87516 2.17009 6.87516 2.29165V3.66665H4.12516C3.5176 3.66737 2.93513 3.90905 2.50551 4.33866C2.0759 4.76828 1.83422 5.35075 1.8335 5.95831V17.875C1.83422 18.4825 2.0759 19.065 2.50551 19.4946C2.93513 19.9242 3.5176 20.1659 4.12516 20.1666H17.8752C18.4828 20.1662 19.0654 19.9246 19.4951 19.4949C19.9247 19.0652 20.1663 18.4826 20.1668 17.875V5.95831C20.1663 5.35067 19.9247 4.76806 19.4951 4.3384C19.0654 3.90873 18.4828 3.66713 17.8752 3.66665ZM19.2502 17.875C19.2502 18.2397 19.1053 18.5894 18.8474 18.8473C18.5896 19.1051 18.2398 19.25 17.8752 19.25H4.12516C3.76049 19.25 3.41075 19.1051 3.15289 18.8473C2.89503 18.5894 2.75016 18.2397 2.75016 17.875V10.0833H19.2502V17.875ZM19.2502 9.16665H2.75016V5.95831C2.75016 5.19931 3.36433 4.58331 4.12516 4.58331H6.87516V5.95831C6.87516 6.07987 6.92345 6.19645 7.00941 6.2824C7.09536 6.36836 7.21194 6.41665 7.3335 6.41665C7.45505 6.41665 7.57163 6.36836 7.65759 6.2824C7.74354 6.19645 7.79183 6.07987 7.79183 5.95831V4.58331H14.2085V5.95831C14.2085 6.07987 14.2568 6.19645 14.3427 6.2824C14.4287 6.36836 14.5453 6.41665 14.6668 6.41665C14.7884 6.41665 14.905 6.36836 14.9909 6.2824C15.0769 6.19645 15.1252 6.07987 15.1252 5.95831V4.58331H17.8752C18.2398 4.58331 18.5896 4.72818 18.8474 4.98604C19.1053 5.2439 19.2502 5.59364 19.2502 5.95831V9.16665Z" fill="#718096"/>
</svg>
