<svg width="136" height="136" viewBox="0 0 136 136" fill="none" xmlns="http://www.w3.org/2000/svg">
<path d="M40.0099 67.5547H51.2599V78.8047H40.0099V67.5547ZM118.76 33.8047V112.555C118.76 115.538 117.575 118.4 115.465 120.51C113.355 122.619 110.494 123.805 107.51 123.805H28.7599C22.5161 123.805 17.5099 118.742 17.5099 112.555V33.8047C17.5099 30.821 18.6952 27.9595 20.8049 25.8497C22.9147 23.74 25.7762 22.5547 28.7599 22.5547H34.3849V11.3047H45.6349V22.5547H90.6349V11.3047H101.885V22.5547H107.51C110.494 22.5547 113.355 23.74 115.465 25.8497C117.575 27.9595 118.76 30.821 118.76 33.8047ZM28.7599 45.0547H107.51V33.8047H28.7599V45.0547ZM107.51 112.555V56.3047H28.7599V112.555H107.51ZM85.0099 78.8047V67.5547H96.2599V78.8047H85.0099ZM62.5099 78.8047V67.5547H73.7599V78.8047H62.5099ZM40.0099 90.0547H51.2599V101.305H40.0099V90.0547ZM85.0099 101.305V90.0547H96.2599V101.305H85.0099ZM62.5099 101.305V90.0547H73.7599V101.305H62.5099Z" fill="#00A7A7"/>
</svg>
