<svg width="136" height="136" viewBox="0 0 136 136" fill="none" xmlns="http://www.w3.org/2000/svg">
<path d="M107.083 107.863H28.333V29.1133H107.083V107.863ZM107.083 17.8633H28.333C25.3493 17.8633 22.4878 19.0485 20.3781 21.1583C18.2683 23.2681 17.083 26.1296 17.083 29.1133V107.863C17.083 110.847 18.2683 113.708 20.3781 115.818C22.4878 117.928 25.3493 119.113 28.333 119.113H107.083C110.067 119.113 112.928 117.928 115.038 115.818C117.148 113.708 118.333 110.847 118.333 107.863V29.1133C118.333 22.8695 113.27 17.8633 107.083 17.8633ZM93.0205 92.3945C93.0205 83.957 76.1455 79.7383 67.708 79.7383C59.2705 79.7383 42.3955 83.957 42.3955 92.3945V96.6133H93.0205V92.3945ZM67.708 69.8945C71.0646 69.8945 74.2838 68.5611 76.6573 66.1876C79.0308 63.8141 80.3643 60.5949 80.3643 57.2383C80.3643 53.8816 79.0308 50.6625 76.6573 48.289C74.2838 45.9155 71.0646 44.582 67.708 44.582C64.3514 44.582 61.1322 45.9155 58.7587 48.289C56.3852 50.6625 55.0518 53.8816 55.0518 57.2383C55.0518 60.5949 56.3852 63.8141 58.7587 66.1876C61.1322 68.5611 64.3514 69.8945 67.708 69.8945Z" fill="#00A7A7"/>
</svg>
