<svg width="136" height="136" viewBox="0 0 136 136" fill="none" xmlns="http://www.w3.org/2000/svg">
<path d="M106.936 16.9766H83.4236C81.0612 10.4516 74.8737 5.72656 67.5612 5.72656C60.2487 5.72656 54.0612 10.4516 51.6987 16.9766H28.1862C25.2025 16.9766 22.341 18.1618 20.2312 20.2716C18.1214 22.3814 16.9362 25.2429 16.9362 28.2266V106.977C16.9362 109.96 18.1214 112.822 20.2312 114.932C22.341 117.041 25.2025 118.227 28.1862 118.227H106.936C109.92 118.227 112.781 117.041 114.891 114.932C117.001 112.822 118.186 109.96 118.186 106.977V28.2266C118.186 25.2429 117.001 22.3814 114.891 20.2716C112.781 18.1618 109.92 16.9766 106.936 16.9766ZM67.5612 16.9766C69.053 16.9766 70.4837 17.5692 71.5386 18.6241C72.5935 19.679 73.1862 21.1097 73.1862 22.6016C73.1862 24.0934 72.5935 25.5241 71.5386 26.579C70.4837 27.6339 69.053 28.2266 67.5612 28.2266C66.0693 28.2266 64.6386 27.6339 63.5837 26.579C62.5288 25.5241 61.9362 24.0934 61.9362 22.6016C61.9362 21.1097 62.5288 19.679 63.5837 18.6241C64.6386 17.5692 66.0693 16.9766 67.5612 16.9766V16.9766ZM28.1862 84.4766H45.6799L54.1737 68.4453L58.4487 100.902L79.2049 74.4078L89.4424 84.4766H106.936V106.977H28.1862V84.4766ZM106.936 75.8141H93.0424L78.4174 61.1891L64.4112 79.1328L59.1237 39.9266L40.3924 75.8141H28.1862V28.2266H39.4362V33.8516H95.6862V28.2266H106.936V33.8516V75.8141Z" fill="#00A7A7"/>
</svg>
