<svg xmlns="http://www.w3.org/2000/svg" width="111" height="111" viewBox="0 0 111 111" fill="none">
  <path d="M74.7619 40.0993C74.7619 45.1516 72.7549 49.997 69.1824 53.5695C65.6099 57.142 60.7646 59.149 55.7123 59.149C50.66 59.149 45.8146 57.142 42.2421 53.5695C38.6696 49.997 36.6626 45.1516 36.6626 40.0993C36.6626 35.0471 38.6696 30.2017 42.2421 26.6292C45.8146 23.0567 50.66 21.0497 55.7123 21.0497C60.7646 21.0497 65.6099 23.0567 69.1824 26.6292C72.7549 30.2017 74.7619 35.0471 74.7619 40.0993ZM63.508 47.8951C65.5756 45.8275 66.7371 43.0233 66.7371 40.0993C66.7371 37.1754 65.5756 34.3712 63.508 32.3036C61.4404 30.2361 58.6362 29.0745 55.7123 29.0745C52.7883 29.0745 49.9841 30.2361 47.9165 32.3036C45.849 34.3712 44.6874 37.1754 44.6874 40.0993C44.6874 43.0233 45.849 45.8275 47.9165 47.8951C49.9841 49.9626 52.7883 51.1242 55.7123 51.1242C58.6362 51.1242 61.4404 49.9626 63.508 47.8951Z" fill="#00A7A7" stroke="#E6F7F7" stroke-width="2"/>
  <path d="M56.038 74.1862C50.2321 74.1822 44.5112 75.5807 39.3619 78.2626C34.2124 80.9446 29.7869 84.8309 26.462 89.5907L25.93 90.3523L26.6505 90.9389C34.8601 97.622 45.1264 101.264 55.7124 101.248C66.4854 101.263 76.9209 97.4906 85.1942 90.5905L85.9077 89.9954L85.3667 89.2402C82.0278 84.5789 77.6251 80.7815 72.5241 78.1633C67.4232 75.5452 61.7714 74.1818 56.038 74.1862ZM56.038 74.1862C56.0377 74.1862 56.0375 74.1862 56.0373 74.1862L56.0381 75.1862L56.0388 74.1862C56.0385 74.1862 56.0382 74.1862 56.038 74.1862ZM9.60052 55.1365V55.1366C9.60052 65.8439 13.2541 75.703 19.3765 83.5314L20.1748 84.5522L20.9598 83.5212C25.073 78.1197 30.3793 73.7422 36.4642 70.7308C42.5491 67.7194 49.2479 66.1555 56.0372 66.1614H56.039C62.7404 66.1551 69.3549 67.6784 75.3785 70.6155C81.402 73.5525 86.6757 77.8257 90.7977 83.1095L91.5952 84.1318L92.3814 83.1007C96.8206 77.2783 99.8096 70.4825 101.101 63.2756C102.392 56.0687 101.949 48.6579 99.8079 41.6564C97.6666 34.6548 93.8888 28.2638 88.7871 23.0121C83.6855 17.7605 77.4066 13.7991 70.47 11.4559C63.5334 9.11262 56.1385 8.45483 48.8973 9.53692C41.656 10.619 34.7765 13.4099 28.8279 17.6786C22.8794 21.9473 18.0329 27.5712 14.6894 34.0849C11.3458 40.5986 9.60144 47.8148 9.60052 55.1365ZM1.57568 55.1366C1.57568 25.2384 25.8141 1 55.7123 1C85.6104 1 109.849 25.2384 109.849 55.1366C109.849 85.0347 85.6104 109.273 55.7123 109.273C25.8141 109.273 1.57568 85.0347 1.57568 55.1366Z" fill="#00A7A7" stroke="#E6F7F7" stroke-width="2"/>
</svg>