<svg xmlns="http://www.w3.org/2000/svg" width="125" height="126" viewBox="0 0 125 126" fill="none">
  <path d="M66.9582 31.5C66.9582 33.9909 64.9565 36 62.4998 36C60.0432 36 58.0415 33.9909 58.0415 31.5C58.0415 29.0091 60.0432 27 62.4998 27C64.9565 27 66.9582 29.0091 66.9582 31.5Z" fill="#00A7A7" stroke="#E6F7F7" stroke-width="1.5"/>
  <path d="M52.7935 61.4035L52.0839 60.6876L51.3737 61.4029L38.6149 74.2539L32.6586 68.25L52.083 48.6703L65.9095 62.6224L66.6194 63.3388L67.3297 62.6228L80.4495 49.398L81.1577 48.6841L80.4399 47.9799L75.3639 43H92.75V60.5247L87.8236 55.4226L87.1136 54.6873L86.394 55.4132L66.625 75.3556L52.7935 61.4035ZM32.25 90.25H92.75V98.75H32.25V90.25Z" fill="#00A7A7" stroke="#E6F7F7" stroke-width="2"/>
  <path d="M81.2424 16.7499L80.946 16.3001C80.4563 15.5567 79.9233 14.8432 79.35 14.1634L79.3437 14.1559L79.3011 14.1041C79.2995 14.1023 79.2979 14.1004 79.2963 14.0985C75.635 9.80291 70.487 7.07906 64.9037 6.4805L64.8625 6.47608L64.8218 6.46827C63.2876 6.17382 61.7121 6.17382 60.1779 6.46827L60.1372 6.47608L60.096 6.4805C54.5127 7.07906 49.3647 9.80291 45.7034 14.0985L45.656 14.1559L45.6491 14.1642L45.649 14.1642C45.0758 14.8424 44.5429 15.5542 44.053 16.2959L43.7566 16.7445L43.2189 16.7447L26.0425 16.7499L26.0418 16.7499M81.2424 16.7499H26.0418M81.2424 16.7499H81.7811L98.9572 16.7499C98.9575 16.7499 98.9578 16.7499 98.9582 16.7499C102.833 16.7541 106.55 18.3075 109.292 21.0719C112.035 23.8368 113.579 27.5874 113.583 31.5009V104.999C113.579 108.913 112.035 112.663 109.292 115.428C106.55 118.193 102.832 119.746 98.9572 119.75H26.0425C22.1672 119.746 18.4501 118.193 15.7074 115.428C12.9646 112.663 11.4205 108.913 11.4165 104.999V31.5005M81.2424 16.7499L11.4165 31.5005M26.0418 16.7499C22.1668 16.754 18.45 18.3074 15.7074 21.0719C12.9646 23.8367 11.4205 27.5871 11.4165 31.5005M26.0418 16.7499L11.4165 31.5005M26.0405 111.25H26.0415H98.9582C100.607 111.25 102.187 110.59 103.351 109.417C104.514 108.244 105.166 106.655 105.166 105V31.4999V31.499C105.165 29.8447 104.512 28.257 103.349 27.0849L102.639 27.7892L103.349 27.0849C102.186 25.9125 100.608 25.2516 98.9592 25.2499H98.9582H76.0546C75.3015 22.3814 73.668 19.8161 71.376 17.9277C68.872 15.8647 65.7362 14.7368 62.4998 14.7368C59.2635 14.7368 56.1277 15.8647 53.6237 17.9277C51.3316 19.8161 49.6982 22.3814 48.9451 25.2499H26.0415H26.0405C24.3921 25.2516 22.8134 25.9125 21.6503 27.0849C20.4874 28.257 19.8348 29.8447 19.8332 31.499V31.4999L19.8332 105L19.8332 105.001C19.8348 106.655 20.4874 108.243 21.6503 109.415C22.8134 110.587 24.3921 111.248 26.0405 111.25Z" fill="#00A7A7" stroke="#E6F7F7" stroke-width="2"/>
</svg>