<svg width="136" height="136" viewBox="0 0 136 136" fill="none" xmlns="http://www.w3.org/2000/svg">
<path d="M107.502 16.9771H83.9892C80.783 8.20211 71.108 3.70211 62.5017 6.85211C57.6642 8.53961 54.0642 12.2521 52.2642 16.9771H28.7517C25.768 16.9771 22.9065 18.1624 20.7968 20.2722C18.687 22.3819 17.5017 25.2434 17.5017 28.2271V106.977C17.5017 109.961 18.687 112.822 20.7968 114.932C22.9065 117.042 25.768 118.227 28.7517 118.227H107.502C110.485 118.227 113.347 117.042 115.457 114.932C117.566 112.822 118.752 109.961 118.752 106.977V28.2271C118.752 25.2434 117.566 22.3819 115.457 20.2722C113.347 18.1624 110.485 16.9771 107.502 16.9771ZM68.1267 16.9771C69.6185 16.9771 71.0493 17.5697 72.1042 18.6246C73.1591 19.6795 73.7517 21.1103 73.7517 22.6021C73.7517 24.094 73.1591 25.5247 72.1042 26.5796C71.0493 27.6345 69.6185 28.2271 68.1267 28.2271C66.6349 28.2271 65.2041 27.6345 64.1492 26.5796C63.0943 25.5247 62.5017 24.094 62.5017 22.6021C62.5017 21.1103 63.0943 19.6795 64.1492 18.6246C65.2041 17.5697 66.6349 16.9771 68.1267 16.9771V16.9771ZM40.0017 39.4771H96.2517V28.2271H107.502V106.977H28.7517V28.2271H40.0017V39.4771ZM96.2517 61.9771H40.0017V50.7271H96.2517V61.9771ZM85.0017 84.4771H40.0017V73.2271H85.0017V84.4771Z" fill="#00A7A7"/>
</svg>
