<svg width="135" height="136" viewBox="0 0 135 136" fill="none" xmlns="http://www.w3.org/2000/svg">
<path d="M89.9939 96.1595V107.409H11.2439V96.1595C11.2439 96.1595 11.2439 73.6595 50.6189 73.6595C89.9939 73.6595 89.9939 96.1595 89.9939 96.1595ZM70.3064 42.722C70.3064 38.8282 69.1517 35.0218 66.9885 31.7842C64.8252 28.5466 61.7504 26.0232 58.153 24.5331C54.5556 23.043 50.5971 22.6531 46.7781 23.4128C42.9591 24.1724 39.4511 26.0475 36.6977 28.8008C33.9444 31.5542 32.0693 35.0621 31.3097 38.8811C30.55 42.7001 30.9399 46.6586 32.43 50.2561C33.9201 53.8535 36.4435 56.9282 39.6811 59.0915C42.9187 61.2548 46.7251 62.4095 50.6189 62.4095C55.8403 62.4095 60.8479 60.3353 64.5401 56.6431C68.2322 52.951 70.3064 47.9434 70.3064 42.722V42.722ZM89.6564 73.6595C93.1143 76.3355 95.9439 79.7369 97.9458 83.6242C99.9478 87.5115 101.074 91.7903 101.244 96.1595V107.409H123.744V96.1595C123.744 96.1595 123.744 75.7407 89.6564 73.6595ZM84.3689 23.0345C80.4971 23.0129 76.7105 24.1705 73.5126 26.3532C76.9295 31.1274 78.7667 36.8511 78.7667 42.722C78.7667 48.5929 76.9295 54.3166 73.5126 59.0907C76.7105 61.2735 80.4971 62.431 84.3689 62.4095C89.5903 62.4095 94.5979 60.3353 98.2901 56.6431C101.982 52.951 104.056 47.9434 104.056 42.722C104.056 37.5005 101.982 32.4929 98.2901 28.8008C94.5979 25.1087 89.5903 23.0345 84.3689 23.0345V23.0345Z" fill="#00A7A7"/>
</svg>
