<svg xmlns="http://www.w3.org/2000/svg" width="134" height="133" viewBox="0 0 134 133" fill="none">
  <path d="M109.922 109.852H110.672V109.102V23.8984V23.1484H109.922H24.0781H23.3281V23.8984V109.102V109.852H24.0781H109.922ZM18.8438 15.2969H115.156C117.064 15.2969 118.594 16.8237 118.594 18.7031V114.297C118.594 116.176 117.064 117.703 115.156 117.703H18.8438C16.9364 117.703 15.4062 116.176 15.4062 114.297V18.7031C15.4062 16.8237 16.9364 15.2969 18.8438 15.2969ZM88.4609 51.2031H64.3828C64.2159 51.2031 64.0859 51.066 64.0859 50.9141V44.6797C64.0859 44.5277 64.2159 44.3906 64.3828 44.3906H88.4609C88.6278 44.3906 88.7578 44.5277 88.7578 44.6797V50.9141C88.7578 51.066 88.6278 51.2031 88.4609 51.2031ZM88.4609 69.9062H64.3828C64.2159 69.9062 64.0859 69.7692 64.0859 69.6172V63.3828C64.0859 63.2308 64.2159 63.0938 64.3828 63.0938H88.4609C88.6278 63.0938 88.7578 63.2308 88.7578 63.3828V69.6172C88.7578 69.7692 88.6278 69.9062 88.4609 69.9062ZM88.4609 88.6094H64.3828C64.2159 88.6094 64.0859 88.4723 64.0859 88.3203V82.0859C64.0859 81.934 64.2159 81.7969 64.3828 81.7969H88.4609C88.6278 81.7969 88.7578 81.934 88.7578 82.0859V88.3203C88.7578 88.4723 88.6278 88.6094 88.4609 88.6094ZM46.5536 50.9382C45.7133 50.1041 45.2422 48.974 45.2422 47.7969C45.2422 46.6197 45.7133 45.4896 46.5536 44.6555C47.3942 43.8213 48.5354 43.3516 49.7266 43.3516C50.9177 43.3516 52.0589 43.8213 52.8995 44.6555C53.7399 45.4896 54.2109 46.6197 54.2109 47.7969C54.2109 48.974 53.7399 50.1041 52.8995 50.9382C52.0589 51.7725 50.9177 52.2422 49.7266 52.2422C48.5354 52.2422 47.3942 51.7725 46.5536 50.9382ZM46.5536 69.6413C45.7133 68.8072 45.2422 67.6772 45.2422 66.5C45.2422 65.3228 45.7133 64.1928 46.5536 63.3587C47.3942 62.5244 48.5354 62.0547 49.7266 62.0547C50.9177 62.0547 52.0589 62.5244 52.8995 63.3587C53.7399 64.1928 54.2109 65.3228 54.2109 66.5C54.2109 67.6772 53.7399 68.8072 52.8995 69.6413C52.0589 70.4756 50.9177 70.9453 49.7266 70.9453C48.5354 70.9453 47.3942 70.4756 46.5536 69.6413ZM46.5536 88.3445C45.7133 87.5104 45.2422 86.3803 45.2422 85.2031C45.2422 84.026 45.7133 82.8959 46.5536 82.0618C47.3942 81.2275 48.5354 80.7578 49.7266 80.7578C50.9177 80.7578 52.0589 81.2275 52.8995 82.0618C53.7399 82.8959 54.2109 84.026 54.2109 85.2031C54.2109 86.3803 53.7399 87.5104 52.8995 88.3445C52.0589 89.1787 50.9177 89.6484 49.7266 89.6484C48.5354 89.6484 47.3942 89.1787 46.5536 88.3445Z" fill="#00A7A7" stroke="#E6F7F7" stroke-width="1.5"/>
</svg>