<svg xmlns="http://www.w3.org/2000/svg" width="90" height="116" viewBox="0 0 90 116" fill="none">
  <path d="M5.92857 74.1111V74.6111H6.42857H54.6429C57.1818 74.6111 59.5019 75.1611 61.6119 76.2559C63.7249 77.3588 65.5463 78.9079 67.077 80.9107L67.0779 80.9118L83.175 101.856L84.0714 103.023V101.552V10.4078C84.0714 9.13434 83.6581 8.0531 82.8133 7.20621C81.9684 6.35924 80.8892 5.94444 79.6179 5.94444H10.3821C9.1108 5.94444 8.03162 6.35924 7.18672 7.20622C6.34193 8.0531 5.92857 9.13434 5.92857 10.4078V74.1111ZM81.5464 110.056H82.5579L58.9757 81.5931L59.2072 81.1499C59.2068 81.1497 59.2064 81.1495 59.2061 81.1493C57.8072 80.4189 56.2834 80.0556 54.6429 80.0556H6.42857H5.92857V80.5556V105.592C5.92857 106.866 6.34193 107.947 7.18673 108.794C8.03162 109.641 9.11079 110.056 10.3821 110.056H81.5464ZM3.33004 3.33728L3.3308 3.33651C5.21151 1.44708 7.55007 0.5 10.3821 0.5H79.6179C82.4499 0.5 84.7885 1.44708 86.6692 3.33651L86.67 3.33728C88.5548 5.2227 89.5 7.56763 89.5 10.4078V105.592C89.5 108.433 88.5567 110.778 86.676 112.663C84.7909 114.553 82.4499 115.5 79.6179 115.5H10.3821C7.54973 115.5 5.21105 114.555 3.33042 112.67C1.4452 110.78 0.5 108.432 0.5 105.592V10.4078C0.5 7.56763 1.44518 5.2227 3.33004 3.33728ZM23 54.2778V48.8333H67V54.2778H23ZM23 28.5V23.0556H67V28.5H23Z" fill="#00A7A7" stroke="#00A7A7"/>
</svg>